<?xml version="1.0" standalone="no"?>
<!DOCTYPE svg PUBLIC "-//W3C//DTD SVG 20010904//EN"
 "http://www.w3.org/TR/2001/REC-SVG-20010904/DTD/svg10.dtd">
<svg version="1.0" xmlns="http://www.w3.org/2000/svg"
 width="1280.000000pt" height="923.000000pt" viewBox="0 0 1280.000000 923.000000"
 preserveAspectRatio="xMidYMid meet">
<metadata>
Created by potrace 1.15, written by Peter Selinger 2001-2017
</metadata>
<g transform="translate(0.000000,923.000000) scale(0.100000,-0.100000)"
fill="#000000" stroke="none">
<path d="M2000 9220 c-188 -23 -360 -73 -571 -163 l-124 -54 -65 19 c-268 77
-514 119 -707 119 -126 0 -162 -5 -324 -46 -200 -51 -260 -100 -167 -138 31
-13 31 -14 11 -21 -29 -9 -37 -35 -17 -57 9 -10 80 -39 158 -65 170 -56 366
-133 661 -260 326 -140 304 -124 407 -289 49 -77 107 -174 130 -215 23 -41
118 -196 211 -345 196 -315 222 -365 238 -466 15 -94 8 -193 -36 -524 -57
-436 -95 -853 -97 -1084 -1 -108 3 -156 21 -236 101 -445 342 -1112 549 -1520
124 -244 295 -473 590 -788 152 -162 453 -451 597 -574 109 -93 212 -166 310
-222 112 -65 414 -213 560 -276 229 -98 335 -165 335 -210 0 -39 -40 -138 -64
-161 -28 -25 -162 -85 -372 -164 -168 -64 -395 -162 -543 -234 -88 -43 -93
-44 -218 -50 -239 -12 -294 -25 -574 -135 -108 -42 -137 -57 -129 -64 3 -2 95
15 205 39 312 68 489 86 340 35 -148 -50 -435 -213 -435 -247 0 -10 18 -5 68
20 195 98 439 196 488 196 13 0 24 -5 24 -12 0 -12 -112 -125 -244 -246 -37
-35 -66 -66 -63 -69 12 -11 51 12 203 123 145 106 238 160 334 194 32 11 48 8
203 -45 93 -31 171 -54 174 -51 9 8 11 7 -107 76 -110 65 -150 96 -150 115 0
13 103 63 180 89 25 8 110 31 188 51 79 20 203 58 275 84 73 27 245 86 382
131 138 46 257 86 265 90 14 6 153 204 163 232 12 36 18 -21 24 -234 l6 -234
-38 -70 c-21 -38 -56 -95 -77 -126 -45 -68 -612 -639 -657 -662 -16 -9 -106
-32 -198 -51 -186 -38 -269 -63 -358 -106 -62 -30 -160 -97 -153 -105 4 -4 81
18 363 100 66 20 131 36 145 36 22 0 20 -3 -20 -30 -43 -28 -281 -242 -275
-248 1 -1 90 49 198 112 108 63 206 120 219 127 25 14 26 14 -30 -55 -56 -69
-103 -194 -88 -233 6 -14 12 -9 30 23 24 42 144 205 193 262 l28 32 195 -34
c107 -19 197 -33 198 -31 9 9 -106 57 -207 88 l-112 34 153 115 c125 95 200
164 413 379 261 265 476 493 549 582 54 66 66 124 66 336 l0 173 73 -7 c182
-17 273 -43 404 -119 142 -82 279 -100 394 -51 35 15 86 35 112 45 63 23 61
23 612 -101 176 -39 336 -75 355 -79 19 -4 88 -20 152 -34 136 -32 162 -31
166 3 6 37 -49 242 -76 286 -13 22 -45 61 -69 86 l-45 47 118 7 c66 4 351 5
634 2 560 -6 564 -7 750 -68 52 -17 255 -96 451 -175 196 -78 424 -164 505
-189 224 -70 387 -136 619 -253 388 -194 488 -226 709 -226 l149 -1 17 30 c25
45 62 49 216 26 172 -27 185 -27 372 9 287 56 352 84 352 152 0 60 -45 135
-129 217 -59 57 -82 87 -90 117 -18 67 -41 82 -211 142 -846 297 -1225 425
-1668 563 -478 148 -1404 477 -1689 599 -259 111 -712 331 -741 360 -15 14
-67 91 -115 171 -108 177 -188 290 -292 411 -110 128 -872 890 -1020 1019
-293 257 -969 809 -1375 1124 -445 345 -796 640 -981 824 -167 167 -159 155
-493 826 -376 758 -429 848 -605 1018 -229 221 -550 389 -846 442 -106 20
-433 28 -545 15z"/>
</g>
</svg>
